<?xml version="1.0" standalone="no"?>
<!DOCTYPE svg PUBLIC "-//W3C//DTD SVG 20010904//EN"
 "http://www.w3.org/TR/2001/REC-SVG-20010904/DTD/svg10.dtd">
<svg version="1.0" xmlns="http://www.w3.org/2000/svg"
 width="417.000000pt" height="417.000000pt" viewBox="0 0 417.000000 417.000000"
 preserveAspectRatio="xMidYMid meet">
<metadata>
Created by potrace 1.11, written by Peter Selinger 2001-2013
</metadata>
<g transform="translate(0.000000,417.000000) scale(0.100000,-0.100000)"
fill="#000000" stroke="none">
<path d="M1845 4149 c-27 -4 -75 -10 -105 -14 -211 -27 -515 -141 -737 -276
-76 -46 -203 -135 -218 -153 -5 -6 -23 -22 -40 -34 -54 -42 -186 -174 -254
-256 -64 -76 -171 -221 -171 -231 0 -2 -11 -21 -25 -42 -110 -161 -245 -527
-270 -733 -3 -25 -9 -72 -14 -105 -17 -121 -9 -435 14 -554 3 -14 8 -42 11
-61 21 -131 99 -364 175 -517 148 -302 357 -556 624 -758 258 -196 498 -303
850 -380 94 -20 572 -29 710 -13 208 24 455 104 662 213 532 281 927 790 1059
1368 2 9 6 27 10 40 7 31 23 130 31 202 9 79 9 350 -1 448 -7 80 -38 249 -58
322 -14 47 -12 41 -22 85 -5 19 -11 40 -15 45 -4 6 -13 28 -20 50 -54 165
-171 382 -290 540 -70 92 -79 102 -186 210 -170 172 -349 299 -565 403 -139
66 -326 134 -392 142 -4 1 -22 6 -40 11 -18 6 -44 12 -58 15 -117 20 -134 23
-215 33 -86 11 -382 11 -450 0z m332 -1454 c110 -12 235 -73 323 -157 130
-124 193 -275 194 -463 1 -144 -32 -245 -117 -361 -295 -401 -904 -304 -1067
170 -54 157 -43 319 32 475 78 163 255 301 423 330 108 19 103 19 212 6z
m-1165 -746 c130 -28 207 -106 274 -279 124 -320 430 -498 834 -485 63 2 126
6 140 9 14 3 39 8 55 12 17 3 54 14 83 25 262 95 463 307 553 584 25 77 71
135 110 136 30 1 685 1 720 0 14 -1 36 -11 48 -22 21 -20 23 -28 18 -88 -6
-72 -15 -127 -23 -151 -3 -8 -8 -26 -10 -40 -12 -60 -79 -243 -125 -336 -263
-540 -797 -925 -1389 -1002 -75 -10 -361 -9 -435 1 -286 39 -624 174 -827 331
-14 12 -41 32 -59 46 -71 53 -201 180 -275 270 -211 252 -361 608 -389 922 -6
62 15 66 290 68 131 0 241 3 244 5 8 9 110 5 163 -6z"/>
</g>
</svg>
