<?xml version="1.0" encoding="utf-8"?>
<!-- Generator: Adobe Illustrator 19.2.1, SVG Export Plug-In . SVG Version: 6.00 Build 0)  -->
<svg version="1.1" id="Layer_1" xmlns="http://www.w3.org/2000/svg" xmlns:xlink="http://www.w3.org/1999/xlink" x="0px" y="0px"
	 viewBox="0 0 100 100" style="enable-background:new 0 0 100 100;" xml:space="preserve">
<style type="text/css">
	.st0{fill:none;}
	.st1{fill:#FFFFFF;}
</style>
<path class="st0" d="M49.8,65c8,0.1,14.8-6.5,14.9-14.5c0.1-8.5-6.4-15.4-14.7-15.4c-8,0-14.7,6.6-14.8,14.7
	C35.2,58.1,41.7,64.9,49.8,65z"/>
<path class="st1" d="M50.5,0.2C23.4-0.4,0.2,22.2,0,49.7c-0.2,28.1,23.4,51,49.8,50.1c26.9,1.1,50.3-21.9,50.2-49.2
	C100,22.3,78.3,0.8,50.5,0.2z M50.1,35.1c8.3,0,14.8,6.9,14.7,15.4c-0.1,8-6.9,14.6-14.9,14.5c-8.1-0.1-14.6-6.9-14.5-15.2
	C35.4,41.7,42.1,35.1,50.1,35.1z M54.8,92.6c-21.4,2.5-43.1-12.3-47-35.5c-0.6-3.7-0.5-3.9,3.3-3.9c2.3,0,4.6,0,6.9,0
	c0.3,0,0.7,0,1,0c5.6-0.7,9.5,0,11.9,6.7c3.1,8.6,12.1,12.5,22,11.6c8.1-0.7,15.6-7,18-15.4c0.7-2.4,1.8-3.1,4.1-3
	c4.9,0.1,9.8,0.1,14.7,0c2.3,0,3,0.7,2.7,3.1C89.7,75.2,73.8,90.4,54.8,92.6z"/>
</svg>
